<?xml version="1.0" encoding="UTF-8"?>
<svg width="16px" height="16px" viewBox="0 0 16 16" version="1.1" xmlns="http://www.w3.org/2000/svg" xmlns:xlink="http://www.w3.org/1999/xlink">
    <title>favicon</title>
    <defs>
        <linearGradient x1="41.3578146%" y1="97.3594807%" x2="68.3454723%" y2="-23.7242564%" id="linearGradient-1">
            <stop stop-color="#BE1E2D" offset="0%"></stop>
            <stop stop-color="#EF4136" offset="35.11%"></stop>
            <stop stop-color="#F68B1F" offset="64.39%"></stop>
            <stop stop-color="#F78E20" offset="73.6%"></stop>
            <stop stop-color="#F89627" offset="82.84%"></stop>
            <stop stop-color="#FAA535" offset="92.06%"></stop>
            <stop stop-color="#FBB040" offset="97.31%"></stop>
        </linearGradient>
        <linearGradient x1="20.1579261%" y1="99.6470789%" x2="46.094855%" y2="45.7019409%" id="linearGradient-2">
            <stop stop-color="#BE1E2D" offset="0%"></stop>
            <stop stop-color="#EF4136" offset="35.11%"></stop>
            <stop stop-color="#F68B1F" offset="64.39%"></stop>
            <stop stop-color="#F78E20" offset="73.3%"></stop>
            <stop stop-color="#F89627" offset="82.25%"></stop>
            <stop stop-color="#FAA535" offset="91.17%"></stop>
            <stop stop-color="#FBB040" offset="96.25%"></stop>
        </linearGradient>
        <linearGradient x1="0.408276839%" y1="50.0290035%" x2="105.12304%" y2="50.0290035%" id="linearGradient-3">
            <stop stop-color="#EF4136" offset="22.51%"></stop>
            <stop stop-color="#F68B1F" offset="92.14%"></stop>
            <stop stop-color="#F78E20" offset="94.34%"></stop>
            <stop stop-color="#F89627" offset="96.55%"></stop>
            <stop stop-color="#FAA535" offset="98.75%"></stop>
            <stop stop-color="#FBB040" offset="100%"></stop>
        </linearGradient>
    </defs>
    <g id="favicon" stroke="none" stroke-width="1" fill="none" fill-rule="evenodd">
        <g id="Group" transform="translate(1.000000, 0.000000)" fill-rule="nonzero">
            <path d="M6.61742283,12.6981692 C6.68476604,12.6212989 6.75083861,12.5431257 6.81818182,12.4649525 L1.56159997,5.18181818 C0.590841324,6.29708884 8.34887715e-14,7.76804746 8.34887715e-14,9.38102069 C8.34887715e-14,10.9536044 0.561616915,12.3893851 1.49044489,13.4942327 C3.63526243,15.0746338 5.87918883,13.5515597 6.61742283,12.6981692 Z" id="Path" fill="url(#linearGradient-1)"></path>
            <path d="M6.91375014,8.18181818 L7.6314877,7.42342055 L15,0 L9.73008993,4.04130649 C8.7119948,3.33120613 7.47675805,2.91350003 6.14270235,2.91350003 C5.01538628,2.91350003 3.95828367,3.21242095 3.04290822,3.73324825 L1.90909091,2.98007194 L6.08809188,7.30202471 L6.91375014,8.18181818 Z" id="Path" fill="url(#linearGradient-2)"></path>
            <path d="M6.60348808,12.7723035 C5.84993515,13.6419854 3.55944551,15.1941353 1.36882434,13.583564 C1.36752734,13.5822363 1.36623035,13.5809085 1.36363636,13.5795808 L1.4686928,13.7017346 C1.46998979,13.7030623 1.47258378,13.7057178 1.47388077,13.7070456 C1.54391839,13.7853834 1.61525301,13.8623934 1.68918161,13.9380756 C1.70085454,13.9500254 1.71252748,13.9606475 1.72420042,13.9725973 C1.78645608,14.035002 1.85000874,14.0974066 1.91485839,14.1584835 C1.94209524,14.1837109 1.97062909,14.2076106 1.99786594,14.232838 C2.04844867,14.2779818 2.09903139,14.3231256 2.15091111,14.3669416 C2.18333594,14.3948246 2.21705776,14.420052 2.24948258,14.4466072 C2.29876832,14.4864399 2.34675706,14.5249449 2.39604279,14.5634499 C2.4310616,14.5900051 2.4686744,14.6165603 2.5049902,14.6417877 C2.55427594,14.6776372 2.60226468,14.7121589 2.65284741,14.7466806 C2.6904602,14.7732358 2.72936999,14.7971354 2.76827978,14.8223628 C2.81756552,14.8542291 2.86685125,14.8860953 2.91743398,14.9166337 C2.95764076,14.9405334 2.99784754,14.964433 3.03935132,14.9883327 C3.08993405,15.0175434 3.14051677,15.0467541 3.19239649,15.074637 C3.23390027,15.0972089 3.27670104,15.118453 3.31820481,15.1410249 C3.37008453,15.1675801 3.42196425,15.1941353 3.47514097,15.2193627 C3.51794174,15.2392791 3.5620395,15.2605232 3.60484027,15.2791118 C3.65801698,15.3030115 3.71119369,15.3255834 3.7656674,15.3481553 C3.80976516,15.3667439 3.85386292,15.3840047 3.89925768,15.4012656 C3.95373138,15.4225097 4.00950208,15.4424261 4.06397579,15.4623425 C4.10937054,15.4782756 4.15346831,15.4942087 4.20016005,15.5088141 C4.25593075,15.5274027 4.31299845,15.5446635 4.37006614,15.5619244 C4.41546089,15.575202 4.46085565,15.5898073 4.5075474,15.6017572 C4.56591208,15.6176903 4.62427677,15.6322956 4.68393844,15.6455732 C4.7293332,15.6561953 4.77472795,15.6681451 4.8214197,15.6774394 C4.88237837,15.690717 4.94333704,15.7013391 5.00559271,15.7132889 C5.05098746,15.7212554 5.09508522,15.7305497 5.14047998,15.7385163 C5.20532963,15.7491384 5.27017928,15.7571049 5.33632592,15.7650715 C5.37912669,15.7703825 5.42192746,15.7770213 5.46472823,15.7823323 C5.53735984,15.7902989 5.61128844,15.7956099 5.68521704,15.800921 C5.72153284,15.8035765 5.75784865,15.8075597 5.79416445,15.8088875 C5.90440886,15.8141985 6.01595025,15.8181818 6.12878865,15.8181818 C6.12878865,15.8181818 6.13008564,15.8181818 6.13008564,15.8181818 C6.23125109,15.8181818 6.33111955,15.8155263 6.42969102,15.8102153 C6.45692787,15.8088875 6.48546172,15.806232 6.51269857,15.8049042 C6.58662717,15.800921 6.65925878,15.7942822 6.73189039,15.7876434 C6.76172123,15.7849879 6.79155207,15.7810046 6.82138291,15.7783491 C6.89271752,15.7703825 6.96275514,15.7610882 7.03279277,15.7504661 C7.06132661,15.7464829 7.09115745,15.7424996 7.1196913,15.7371885 C7.18972892,15.7252387 7.25976654,15.7132889 7.32850717,15.6986835 C7.35704102,15.6933725 7.38557486,15.6880615 7.41410871,15.6814227 C7.47506738,15.6681451 7.53602605,15.6535397 7.59568773,15.6389344 C9.73702317,15.107831 11.3284336,13.4454771 12.0586406,11.504294 C12.0625316,11.493672 12.0664226,11.4830499 12.0703136,11.4724278 C13.2155584,8.38140573 14.1818182,3 14.1818182,3 C14.1818182,3 10.4049746,8.34024521 6.80841298,12.5306514 C6.73967235,12.6143002 6.67222871,12.6939658 6.60348808,12.7723035 Z" id="Path" fill="url(#linearGradient-3)"></path>
        </g>
    </g>
</svg>